<?xml version="1.0" standalone="no"?><!DOCTYPE svg PUBLIC "-//W3C//DTD SVG 1.1//EN" "http://www.w3.org/Graphics/SVG/1.1/DTD/svg11.dtd"><svg t="1757553523898" class="icon" viewBox="0 0 1024 1024" version="1.1" xmlns="http://www.w3.org/2000/svg" p-id="1438" xmlns:xlink="http://www.w3.org/1999/xlink" width="256" height="256"><path d="M86.6 673.1c-2.6 0-5.2-0.4-7.8-1.4-12.1-4.3-18.4-17.6-14.1-29.7 63.8-178.7 234.1-298.7 423.9-298.7 172.3 0 326.9 96 403.5 250.5 5.7 11.5 1 25.4-10.5 31.1-11.5 5.7-25.4 1-31.1-10.5-68.6-138.6-207.3-224.7-361.8-224.7-170.2 0-323 107.7-380.2 267.9-3.4 9.6-12.4 15.5-21.9 15.5z" fill="#7D7D7D" p-id="1439"></path><path d="M896.1 464.1L746.1 597c-0.3 0.3-0.2 0.7 0.2 0.8l190 63.4c0.4 0.1 0.7-0.2 0.6-0.6l-40.1-196.3c0-0.3-0.4-0.5-0.7-0.2z" fill="#CBCBCB" p-id="1440"></path><path d="M932.8 683.1c-2.8 0-5.6-0.4-8.4-1.4l-180.8-60.3c-9-3-15.7-10.6-17.6-19.9-1.9-9.3 1.3-18.9 8.4-25.2L877 449.9c7.1-6.3 17-8.3 26-5.3 9 3 15.7 10.6 17.6 19.9l38.1 186.7c1.9 9.3-1.3 18.9-8.4 25.2-4.8 4.4-11.1 6.7-17.5 6.7zM791 588.3l115.4 38.5L882 507.6l-91 80.7z m116.8-103.6c0 0.1 0 0 0 0z" fill="#7D7D7D" p-id="1441"></path></svg>